<?xml version="1.0" encoding="UTF-8" standalone="no"?>
<!DOCTYPE svg PUBLIC "-//W3C//DTD SVG 1.1//EN" "http://www.w3.org/Graphics/SVG/1.1/DTD/svg11.dtd">
<svg width="100%" height="100%" viewBox="0 0 1418 1418" version="1.1" xmlns="http://www.w3.org/2000/svg" xmlns:xlink="http://www.w3.org/1999/xlink" xml:space="preserve" xmlns:serif="http://www.serif.com/" style="fill-rule:evenodd;clip-rule:evenodd;stroke-linejoin:round;stroke-miterlimit:1.41421;">
    <g transform="matrix(-0.825981,0,0,0.825981,1039.41,109.453)">
        <g>
            <g id="Head">
                <g transform="matrix(0.733518,0,0,1.29705,141.348,-202.834)">
                    <rect x="601.927" y="668.886" width="48.139" height="22.695" style="fill:rgb(218,162,132);"/>
                </g>
                <g transform="matrix(1,0,0,1,-46.5644,0.198538)">
                    <ellipse cx="647.751" cy="589.699" rx="85.184" ry="88.176" style="fill:rgb(218,162,132);"/>
                </g>
            </g>
            <g id="Torso" transform="matrix(0.727509,0,0,0.891966,142.829,12.7068)">
                <path d="M517.775,829.346C517.775,786.264 566.052,751.288 625.514,751.288C684.977,751.288 733.254,786.265 733.254,829.346L733.254,1064.95C733.254,1108.03 684.977,1143.01 625.514,1143.01C566.051,1143.01 517.775,1108.03 517.775,1064.95L517.775,829.346Z" style="fill:rgb(75,118,187);"/>
            </g>
            <g id="Leg-1" serif:id="Leg 1" transform="matrix(0.879662,-0.4756,0.4756,0.879662,-426.24,363.275)">
                <g id="leg1_b" transform="matrix(0.880043,0.474894,-0.35038,0.649302,376.246,199.066)">
                    <path d="M519.515,1005.69C519.515,987.336 534.824,972.437 553.68,972.437C572.537,972.437 587.846,987.336 587.846,1005.69L587.846,1208.69C587.846,1227.05 572.537,1241.94 553.68,1241.94C534.824,1241.94 519.515,1227.05 519.515,1208.69L519.515,1005.69Z" style="fill:rgb(48,78,128);"/>
                </g>
                <g id="leg1_b1" serif:id="leg1_b" transform="matrix(0.880043,0.474894,-0.35038,0.649302,453.93,241.067)">
                    <path d="M519.515,1005.69C519.515,987.336 534.824,972.437 553.68,972.437C572.537,972.437 587.846,987.336 587.846,1005.69L587.846,1208.69C587.846,1227.05 572.537,1241.94 553.68,1241.94C534.824,1241.94 519.515,1227.05 519.515,1208.69L519.515,1005.69Z" style="fill:rgb(48,78,128);"/>
                </g>
                <g transform="matrix(-1.06499,-0.5758,-0.246815,0.456505,1407.89,956.411)">
                    <path d="M617.484,786.026L617.484,900.618C617.484,932.359 588.475,958.128 552.743,958.128C517.011,958.128 488.001,932.359 488.001,900.618L488.001,786.026L617.484,786.026Z" style="fill:rgb(48,78,127);"/>
                </g>
                <g id="leg1_t" transform="matrix(0.878979,0.47686,-0.351831,0.648518,440.459,84.2383)">
                    <path d="M519.515,1005.69C519.515,987.336 534.824,972.437 553.68,972.437C572.537,972.437 587.846,987.336 587.846,1005.69L587.846,1208.69C587.846,1227.05 572.537,1241.94 553.68,1241.94C534.824,1241.94 519.515,1227.05 519.515,1208.69L519.515,1005.69Z" style="fill:rgb(48,78,128);"/>
                </g>
                <g id="leg1_t1" serif:id="leg1_t" transform="matrix(0.878979,0.47686,-0.351831,0.648518,518.166,125.998)">
                    <path d="M519.515,1005.69C519.515,987.336 534.824,972.437 553.68,972.437C572.537,972.437 587.846,987.336 587.846,1005.69L587.846,1208.69C587.846,1227.05 572.537,1241.94 553.68,1241.94C534.824,1241.94 519.515,1227.05 519.515,1208.69L519.515,1005.69Z" style="fill:rgb(48,78,128);"/>
                </g>
            </g>
            <g transform="matrix(-1.21068,0,0,1.21068,1267.09,-127.759)">
                <path d="M571.815,672.071C579.531,674.184 586.634,677.545 592.824,681.888L592.824,888.603L571.815,888.603L571.815,672.071Z" style="fill:rgb(48,78,127);"/>
            </g>
            <g transform="matrix(-1.21068,0,0,1.21068,1267.09,-127.759)">
                <path d="M531.731,672.633L531.731,888.603L510.722,888.603L510.722,683.304C516.845,678.656 523.955,675.005 531.731,672.633Z" style="fill:rgb(48,78,127);"/>
            </g>
            <g id="Arm-1" serif:id="Arm 1" transform="matrix(1,0,0,1,-34.7899,-10.4056)">
                <g id="arm1_t" transform="matrix(0.598119,0.187522,-0.220723,0.704018,453.255,-73.9652)">
                    <path d="M519.515,1005.69C519.515,987.336 534.824,972.437 553.68,972.437C572.537,972.437 587.846,987.336 587.846,1005.69L587.846,1208.69C587.846,1227.05 572.537,1241.94 553.68,1241.94C534.824,1241.94 519.515,1227.05 519.515,1208.69L519.515,1005.69Z" style="fill:rgb(69,110,174);"/>
                </g>
                <g id="arm1_t1" serif:id="arm1_t" transform="matrix(0.612316,-0.134091,0.157833,0.720728,207.374,87.4283)">
                    <path d="M519.515,1005.69C519.515,987.336 534.824,972.437 553.68,972.437C572.537,972.437 587.846,987.336 587.846,1005.69L587.846,1208.69C587.846,1227.05 572.537,1241.94 553.68,1241.94C534.824,1241.94 519.515,1227.05 519.515,1208.69L519.515,1005.69Z" style="fill:rgb(69,110,174);"/>
                </g>
                <g id="arm1_b" transform="matrix(0.625265,-0.0442146,0.0436868,0.617801,127.199,285.458)">
                    <path d="M519.515,1005.69C519.515,987.336 534.824,972.437 553.68,972.437C572.537,972.437 587.846,987.336 587.846,1005.69L587.846,1208.69C587.846,1227.05 572.537,1241.94 553.68,1241.94C534.824,1241.94 519.515,1227.05 519.515,1208.69L519.515,1005.69Z" style="fill:rgb(69,110,174);"/>
                </g>
                <g id="arm1_b1" serif:id="arm1_b" transform="matrix(0.625265,-0.0442146,0.0436868,0.617801,345.919,285.458)">
                    <path d="M519.515,1005.69C519.515,987.336 534.824,972.437 553.68,972.437C572.537,972.437 587.846,987.336 587.846,1005.69L587.846,1208.69C587.846,1227.05 572.537,1241.94 553.68,1241.94C534.824,1241.94 519.515,1227.05 519.515,1208.69L519.515,1005.69Z" style="fill:rgb(69,110,174);"/>
                </g>
            </g>
        </g>
        <g id="Builder-HEad" serif:id="Builder HEad">
            <g transform="matrix(0.865725,0,0,1,90.4705,3.2506)">
                <path d="M686.782,557.467L494.172,557.467C494.172,505.845 537.325,463.935 590.477,463.935C643.629,463.935 686.782,505.845 686.782,557.467Z" style="fill:rgb(244,180,25);"/>
            </g>
            <g transform="matrix(1,0,0,1,24.3892,-1.35427)">
                <rect x="483.289" y="560.84" width="184.767" height="5.01" style="fill:rgb(244,180,25);"/>
            </g>
        </g>
    </g>
    <g transform="matrix(1,0,0,0.963882,0,32.4805)">
        <rect x="515.647" y="742.911" width="59.486" height="156.375" style="fill:rgb(48,78,127);"/>
    </g>
    <g transform="matrix(1,0,0,1,0,-16.7258)">
        <path d="M575.083,784.264C575.116,784.665 575.133,785.072 575.133,785.482L575.133,814.711C575.133,822.777 568.584,829.326 560.518,829.326L530.262,829.326C522.196,829.326 515.647,822.777 515.647,814.711L515.647,785.482C515.647,785.072 515.664,784.665 515.697,784.264L575.083,784.264Z" style="fill:rgb(70,109,174);"/>
    </g>
</svg>
